<svg xmlns="http://www.w3.org/2000/svg" xmlns:xlink="http://www.w3.org/1999/xlink" width="1000" zoomAndPan="magnify" viewBox="0 0 750 749.999995" height="1000" preserveAspectRatio="xMidYMid meet" version="1.0"><defs><clipPath id="3c9a627e39"><path d="M 176.558594 234.628906 L 572 234.628906 L 572 549.632812 L 176.558594 549.632812 Z M 176.558594 234.628906 " clip-rule="nonzero"/></clipPath><clipPath id="c8c903c17f"><path d="M 183.308594 234.628906 L 564.855469 234.628906 C 566.644531 234.628906 568.359375 235.34375 569.628906 236.609375 C 570.894531 237.875 571.605469 239.589844 571.605469 241.378906 L 571.605469 542.882812 C 571.605469 544.675781 570.894531 546.390625 569.628906 547.65625 C 568.359375 548.921875 566.644531 549.632812 564.855469 549.632812 L 183.308594 549.632812 C 181.519531 549.632812 179.800781 548.921875 178.535156 547.65625 C 177.269531 546.390625 176.558594 544.675781 176.558594 542.882812 L 176.558594 241.378906 C 176.558594 239.589844 177.269531 237.875 178.535156 236.609375 C 179.800781 235.34375 181.519531 234.628906 183.308594 234.628906 Z M 183.308594 234.628906 " clip-rule="nonzero"/></clipPath><clipPath id="9b335166f3"><path d="M 0.558594 0.628906 L 395.679688 0.628906 L 395.679688 315.632812 L 0.558594 315.632812 Z M 0.558594 0.628906 " clip-rule="nonzero"/></clipPath><clipPath id="d2d1ef495f"><path d="M 7.308594 0.628906 L 388.855469 0.628906 C 390.644531 0.628906 392.359375 1.34375 393.628906 2.609375 C 394.894531 3.875 395.605469 5.589844 395.605469 7.378906 L 395.605469 308.882812 C 395.605469 310.675781 394.894531 312.390625 393.628906 313.65625 C 392.359375 314.921875 390.644531 315.632812 388.855469 315.632812 L 7.308594 315.632812 C 5.519531 315.632812 3.800781 314.921875 2.535156 313.65625 C 1.269531 312.390625 0.558594 310.675781 0.558594 308.882812 L 0.558594 7.378906 C 0.558594 5.589844 1.269531 3.875 2.535156 2.609375 C 3.800781 1.34375 5.519531 0.628906 7.308594 0.628906 Z M 7.308594 0.628906 " clip-rule="nonzero"/></clipPath><clipPath id="10b75794b2"><rect x="0" width="396" y="0" height="316"/></clipPath><clipPath id="21c978b7bb"><path d="M 252.125 280.605469 L 496 280.605469 L 496 372.558594 L 252.125 372.558594 Z M 252.125 280.605469 " clip-rule="nonzero"/></clipPath><clipPath id="14db017ce7"><path d="M 258.875 280.605469 L 489.011719 280.605469 C 490.800781 280.605469 492.519531 281.316406 493.785156 282.585938 C 495.050781 283.851562 495.761719 285.566406 495.761719 287.355469 L 495.761719 365.808594 C 495.761719 367.601562 495.050781 369.316406 493.785156 370.582031 C 492.519531 371.847656 490.800781 372.558594 489.011719 372.558594 L 258.875 372.558594 C 257.082031 372.558594 255.367188 371.847656 254.101562 370.582031 C 252.835938 369.316406 252.125 367.601562 252.125 365.808594 L 252.125 287.355469 C 252.125 285.566406 252.835938 283.851562 254.101562 282.585938 C 255.367188 281.316406 257.082031 280.605469 258.875 280.605469 Z M 258.875 280.605469 " clip-rule="nonzero"/></clipPath><clipPath id="805816c415"><path d="M 0.125 0.605469 L 243.839844 0.605469 L 243.839844 92.558594 L 0.125 92.558594 Z M 0.125 0.605469 " clip-rule="nonzero"/></clipPath><clipPath id="7d6dd23bd4"><path d="M 6.875 0.605469 L 237.011719 0.605469 C 238.800781 0.605469 240.519531 1.316406 241.785156 2.585938 C 243.050781 3.851562 243.761719 5.566406 243.761719 7.355469 L 243.761719 85.808594 C 243.761719 87.601562 243.050781 89.316406 241.785156 90.582031 C 240.519531 91.847656 238.800781 92.558594 237.011719 92.558594 L 6.875 92.558594 C 5.082031 92.558594 3.367188 91.847656 2.101562 90.582031 C 0.835938 89.316406 0.125 87.601562 0.125 85.808594 L 0.125 7.355469 C 0.125 5.566406 0.835938 3.851562 2.101562 2.585938 C 3.367188 1.316406 5.082031 0.605469 6.875 0.605469 Z M 6.875 0.605469 " clip-rule="nonzero"/></clipPath><clipPath id="81a7e37a98"><rect x="0" width="244" y="0" height="93"/></clipPath><clipPath id="2fc6695bd8"><path d="M 501.527344 465.664062 L 675 465.664062 L 675 675 L 501.527344 675 Z M 501.527344 465.664062 " clip-rule="nonzero"/></clipPath><clipPath id="1883719154"><path d="M 528.527344 465.664062 L 648 465.664062 C 662.910156 465.664062 675 477.753906 675 492.664062 L 675 648 C 675 662.910156 662.910156 675 648 675 L 528.527344 675 C 513.617188 675 501.527344 662.910156 501.527344 648 L 501.527344 492.664062 C 501.527344 477.753906 513.617188 465.664062 528.527344 465.664062 Z M 528.527344 465.664062 " clip-rule="nonzero"/></clipPath><clipPath id="81c15db1ce"><path d="M 0.527344 0.664062 L 174 0.664062 L 174 210 L 0.527344 210 Z M 0.527344 0.664062 " clip-rule="nonzero"/></clipPath><clipPath id="3bbd37616d"><path d="M 27.527344 0.664062 L 147 0.664062 C 161.910156 0.664062 174 12.753906 174 27.664062 L 174 183 C 174 197.910156 161.910156 210 147 210 L 27.527344 210 C 12.617188 210 0.527344 197.910156 0.527344 183 L 0.527344 27.664062 C 0.527344 12.753906 12.617188 0.664062 27.527344 0.664062 Z M 27.527344 0.664062 " clip-rule="nonzero"/></clipPath><clipPath id="950eea1186"><rect x="0" width="174" y="0" height="210"/></clipPath><clipPath id="4c99bf923e"><path d="M 75 465.664062 L 252.125 465.664062 L 252.125 675 L 75 675 Z M 75 465.664062 " clip-rule="nonzero"/></clipPath><clipPath id="551049a614"><path d="M 102 465.664062 L 225.125 465.664062 C 240.035156 465.664062 252.125 477.753906 252.125 492.664062 L 252.125 648 C 252.125 662.910156 240.035156 675 225.125 675 L 102 675 C 87.089844 675 75 662.910156 75 648 L 75 492.664062 C 75 477.753906 87.089844 465.664062 102 465.664062 Z M 102 465.664062 " clip-rule="nonzero"/></clipPath><clipPath id="6cfad6b7f7"><path d="M 0 0.664062 L 177.125 0.664062 L 177.125 210 L 0 210 Z M 0 0.664062 " clip-rule="nonzero"/></clipPath><clipPath id="6ca4547cc0"><path d="M 27 0.664062 L 150.125 0.664062 C 165.035156 0.664062 177.125 12.753906 177.125 27.664062 L 177.125 183 C 177.125 197.910156 165.035156 210 150.125 210 L 27 210 C 12.089844 210 0 197.910156 0 183 L 0 27.664062 C 0 12.753906 12.089844 0.664062 27 0.664062 Z M 27 0.664062 " clip-rule="nonzero"/></clipPath><clipPath id="69b29f2fee"><rect x="0" width="178" y="0" height="210"/></clipPath><clipPath id="31ca8cf247"><path d="M 160.171875 189.804688 L 252.125 189.804688 L 252.125 281.757812 L 160.171875 281.757812 Z M 160.171875 189.804688 " clip-rule="nonzero"/></clipPath><clipPath id="baa2292a88"><path d="M 171.421875 189.804688 L 240.875 189.804688 C 247.085938 189.804688 252.125 194.84375 252.125 201.054688 L 252.125 270.507812 C 252.125 276.722656 247.085938 281.757812 240.875 281.757812 L 171.421875 281.757812 C 165.207031 281.757812 160.171875 276.722656 160.171875 270.507812 L 160.171875 201.054688 C 160.171875 194.84375 165.207031 189.804688 171.421875 189.804688 Z M 171.421875 189.804688 " clip-rule="nonzero"/></clipPath><clipPath id="f364000a18"><path d="M 0.171875 0.804688 L 92.125 0.804688 L 92.125 92.757812 L 0.171875 92.757812 Z M 0.171875 0.804688 " clip-rule="nonzero"/></clipPath><clipPath id="8438d25606"><path d="M 11.421875 0.804688 L 80.875 0.804688 C 87.085938 0.804688 92.125 5.84375 92.125 12.054688 L 92.125 81.507812 C 92.125 87.722656 87.085938 92.757812 80.875 92.757812 L 11.421875 92.757812 C 5.207031 92.757812 0.171875 87.722656 0.171875 81.507812 L 0.171875 12.054688 C 0.171875 5.84375 5.207031 0.804688 11.421875 0.804688 Z M 11.421875 0.804688 " clip-rule="nonzero"/></clipPath><clipPath id="d6462391dd"><rect x="0" width="93" y="0" height="93"/></clipPath><clipPath id="8d5f7d9f31"><path d="M 501.527344 189.804688 L 593.480469 189.804688 L 593.480469 281.757812 L 501.527344 281.757812 Z M 501.527344 189.804688 " clip-rule="nonzero"/></clipPath><clipPath id="c837d45660"><path d="M 512.777344 189.804688 L 582.230469 189.804688 C 588.445312 189.804688 593.480469 194.84375 593.480469 201.054688 L 593.480469 270.507812 C 593.480469 276.722656 588.445312 281.757812 582.230469 281.757812 L 512.777344 281.757812 C 506.566406 281.757812 501.527344 276.722656 501.527344 270.507812 L 501.527344 201.054688 C 501.527344 194.84375 506.566406 189.804688 512.777344 189.804688 Z M 512.777344 189.804688 " clip-rule="nonzero"/></clipPath><clipPath id="a33c2d8ff8"><path d="M 0.527344 0.804688 L 92.480469 0.804688 L 92.480469 92.757812 L 0.527344 92.757812 Z M 0.527344 0.804688 " clip-rule="nonzero"/></clipPath><clipPath id="7383786184"><path d="M 11.777344 0.804688 L 81.230469 0.804688 C 87.445312 0.804688 92.480469 5.84375 92.480469 12.054688 L 92.480469 81.507812 C 92.480469 87.722656 87.445312 92.757812 81.230469 92.757812 L 11.777344 92.757812 C 5.566406 92.757812 0.527344 87.722656 0.527344 81.507812 L 0.527344 12.054688 C 0.527344 5.84375 5.566406 0.804688 11.777344 0.804688 Z M 11.777344 0.804688 " clip-rule="nonzero"/></clipPath><clipPath id="ebeb2e9283"><rect x="0" width="93" y="0" height="93"/></clipPath><clipPath id="acab6c6982"><path d="M 160.171875 373.710938 L 252.125 373.710938 L 252.125 465.664062 L 160.171875 465.664062 Z M 160.171875 373.710938 " clip-rule="nonzero"/></clipPath><clipPath id="66b17847b4"><path d="M 171.421875 373.710938 L 240.875 373.710938 C 247.085938 373.710938 252.125 378.75 252.125 384.960938 L 252.125 454.414062 C 252.125 460.628906 247.085938 465.664062 240.875 465.664062 L 171.421875 465.664062 C 165.207031 465.664062 160.171875 460.628906 160.171875 454.414062 L 160.171875 384.960938 C 160.171875 378.75 165.207031 373.710938 171.421875 373.710938 Z M 171.421875 373.710938 " clip-rule="nonzero"/></clipPath><clipPath id="018dfd2b82"><path d="M 0.171875 0.710938 L 92.125 0.710938 L 92.125 92.664062 L 0.171875 92.664062 Z M 0.171875 0.710938 " clip-rule="nonzero"/></clipPath><clipPath id="ea8efb7d3c"><path d="M 11.421875 0.710938 L 80.875 0.710938 C 87.085938 0.710938 92.125 5.75 92.125 11.960938 L 92.125 81.414062 C 92.125 87.628906 87.085938 92.664062 80.875 92.664062 L 11.421875 92.664062 C 5.207031 92.664062 0.171875 87.628906 0.171875 81.414062 L 0.171875 11.960938 C 0.171875 5.75 5.207031 0.710938 11.421875 0.710938 Z M 11.421875 0.710938 " clip-rule="nonzero"/></clipPath><clipPath id="2e1eaec998"><rect x="0" width="93" y="0" height="93"/></clipPath><clipPath id="4fb7ac3c9a"><path d="M 324.859375 189.59375 L 423.304688 189.59375 L 423.304688 557.609375 L 324.859375 557.609375 Z M 324.859375 189.59375 " clip-rule="nonzero"/></clipPath><clipPath id="b84fd8c161"><path d="M 324.859375 530.609375 L 324.859375 216.800781 C 324.859375 201.886719 336.949219 189.800781 351.859375 189.800781 L 396.304688 189.800781 C 411.214844 189.800781 423.304688 201.886719 423.304688 216.800781 L 423.304688 530.609375 C 423.304688 545.523438 411.214844 557.609375 396.304688 557.609375 L 351.859375 557.609375 C 336.949219 557.609375 324.859375 545.523438 324.859375 530.609375 Z M 324.859375 530.609375 " clip-rule="nonzero"/></clipPath><clipPath id="fed365beb8"><path d="M 0.859375 0.601562 L 99.304688 0.601562 L 99.304688 368.609375 L 0.859375 368.609375 Z M 0.859375 0.601562 " clip-rule="nonzero"/></clipPath><clipPath id="5e58fb82e9"><path d="M 0.859375 341.609375 L 0.859375 27.800781 C 0.859375 12.886719 12.949219 0.800781 27.859375 0.800781 L 72.304688 0.800781 C 87.214844 0.800781 99.304688 12.886719 99.304688 27.800781 L 99.304688 341.609375 C 99.304688 356.523438 87.214844 368.609375 72.304688 368.609375 L 27.859375 368.609375 C 12.949219 368.609375 0.859375 356.523438 0.859375 341.609375 Z M 0.859375 341.609375 " clip-rule="nonzero"/></clipPath><clipPath id="652f3f387a"><rect x="0" width="100" y="0" height="369"/></clipPath><clipPath id="bed33d7186"><path d="M 409.574219 281.757812 L 501.527344 281.757812 L 501.527344 373.710938 L 409.574219 373.710938 Z M 409.574219 281.757812 " clip-rule="nonzero"/></clipPath><clipPath id="5e1973dd16"><path d="M 420.824219 281.757812 L 490.277344 281.757812 C 496.492188 281.757812 501.527344 286.796875 501.527344 293.007812 L 501.527344 362.460938 C 501.527344 368.675781 496.492188 373.710938 490.277344 373.710938 L 420.824219 373.710938 C 414.613281 373.710938 409.574219 368.675781 409.574219 362.460938 L 409.574219 293.007812 C 409.574219 286.796875 414.613281 281.757812 420.824219 281.757812 Z M 420.824219 281.757812 " clip-rule="nonzero"/></clipPath><clipPath id="39059018bb"><path d="M 0.574219 0.757812 L 92.527344 0.757812 L 92.527344 92.710938 L 0.574219 92.710938 Z M 0.574219 0.757812 " clip-rule="nonzero"/></clipPath><clipPath id="4921fa6997"><path d="M 11.824219 0.757812 L 81.277344 0.757812 C 87.492188 0.757812 92.527344 5.796875 92.527344 12.007812 L 92.527344 81.460938 C 92.527344 87.675781 87.492188 92.710938 81.277344 92.710938 L 11.824219 92.710938 C 5.613281 92.710938 0.574219 87.675781 0.574219 81.460938 L 0.574219 12.007812 C 0.574219 5.796875 5.613281 0.757812 11.824219 0.757812 Z M 11.824219 0.757812 " clip-rule="nonzero"/></clipPath><clipPath id="2e0ae1f9e6"><rect x="0" width="93" y="0" height="93"/></clipPath><clipPath id="b851c4ded8"><path d="M 252.125 281.757812 L 344.074219 281.757812 L 344.074219 373.710938 L 252.125 373.710938 Z M 252.125 281.757812 " clip-rule="nonzero"/></clipPath><clipPath id="b55929d2e1"><path d="M 263.375 281.757812 L 332.824219 281.757812 C 339.039062 281.757812 344.074219 286.796875 344.074219 293.007812 L 344.074219 362.460938 C 344.074219 368.675781 339.039062 373.710938 332.824219 373.710938 L 263.375 373.710938 C 257.160156 373.710938 252.125 368.675781 252.125 362.460938 L 252.125 293.007812 C 252.125 286.796875 257.160156 281.757812 263.375 281.757812 Z M 263.375 281.757812 " clip-rule="nonzero"/></clipPath><clipPath id="dda4f828a2"><path d="M 0.125 0.757812 L 92.074219 0.757812 L 92.074219 92.710938 L 0.125 92.710938 Z M 0.125 0.757812 " clip-rule="nonzero"/></clipPath><clipPath id="9d99c04426"><path d="M 11.375 0.757812 L 80.824219 0.757812 C 87.039062 0.757812 92.074219 5.796875 92.074219 12.007812 L 92.074219 81.460938 C 92.074219 87.675781 87.039062 92.710938 80.824219 92.710938 L 11.375 92.710938 C 5.160156 92.710938 0.125 87.675781 0.125 81.460938 L 0.125 12.007812 C 0.125 5.796875 5.160156 0.757812 11.375 0.757812 Z M 11.375 0.757812 " clip-rule="nonzero"/></clipPath><clipPath id="2d84402146"><rect x="0" width="93" y="0" height="93"/></clipPath><clipPath id="7956ddaaab"><path d="M 252.125 373.710938 L 501.761719 373.710938 L 501.761719 465.664062 L 252.125 465.664062 Z M 252.125 373.710938 " clip-rule="nonzero"/></clipPath><clipPath id="f3b8a29c55"><path d="M 279.125 373.710938 L 474.527344 373.710938 C 489.441406 373.710938 501.527344 385.800781 501.527344 400.710938 L 501.527344 438.664062 C 501.527344 453.574219 489.441406 465.664062 474.527344 465.664062 L 279.125 465.664062 C 264.210938 465.664062 252.125 453.574219 252.125 438.664062 L 252.125 400.710938 C 252.125 385.800781 264.210938 373.710938 279.125 373.710938 Z M 279.125 373.710938 " clip-rule="nonzero"/></clipPath><clipPath id="62616aa3c1"><path d="M 0.125 0.710938 L 249.601562 0.710938 L 249.601562 92.664062 L 0.125 92.664062 Z M 0.125 0.710938 " clip-rule="nonzero"/></clipPath><clipPath id="0eada5ff2a"><path d="M 27.125 0.710938 L 222.527344 0.710938 C 237.441406 0.710938 249.527344 12.800781 249.527344 27.710938 L 249.527344 65.664062 C 249.527344 80.574219 237.441406 92.664062 222.527344 92.664062 L 27.125 92.664062 C 12.210938 92.664062 0.125 80.574219 0.125 65.664062 L 0.125 27.710938 C 0.125 12.800781 12.210938 0.710938 27.125 0.710938 Z M 27.125 0.710938 " clip-rule="nonzero"/></clipPath><clipPath id="54f75d573f"><rect x="0" width="250" y="0" height="93"/></clipPath><clipPath id="fe89be2be4"><path d="M 252.125 75 L 501.6875 75 L 501.6875 281.757812 L 252.125 281.757812 Z M 252.125 75 " clip-rule="nonzero"/></clipPath><clipPath id="7a5ac1a749"><path d="M 279.125 75 L 474.527344 75 C 489.441406 75 501.527344 87.089844 501.527344 102 L 501.527344 254.757812 C 501.527344 269.671875 489.441406 281.757812 474.527344 281.757812 L 279.125 281.757812 C 264.210938 281.757812 252.125 269.671875 252.125 254.757812 L 252.125 102 C 252.125 87.089844 264.210938 75 279.125 75 Z M 279.125 75 " clip-rule="nonzero"/></clipPath><clipPath id="405455cdb9"><path d="M 0.125 0 L 249.601562 0 L 249.601562 206.757812 L 0.125 206.757812 Z M 0.125 0 " clip-rule="nonzero"/></clipPath><clipPath id="d96c7f448b"><path d="M 27.125 0 L 222.527344 0 C 237.441406 0 249.527344 12.089844 249.527344 27 L 249.527344 179.757812 C 249.527344 194.671875 237.441406 206.757812 222.527344 206.757812 L 27.125 206.757812 C 12.210938 206.757812 0.125 194.671875 0.125 179.757812 L 0.125 27 C 0.125 12.089844 12.210938 0 27.125 0 Z M 27.125 0 " clip-rule="nonzero"/></clipPath><clipPath id="5d211e40b6"><rect x="0" width="250" y="0" height="207"/></clipPath><clipPath id="3e904ad4dc"><path d="M 501.527344 281.757812 L 675 281.757812 L 675 375 L 501.527344 375 Z M 501.527344 281.757812 " clip-rule="nonzero"/></clipPath><clipPath id="4df9429d8a"><path d="M 528.527344 281.757812 L 648 281.757812 C 662.910156 281.757812 675 293.847656 675 308.757812 L 675 348 C 675 362.910156 662.910156 375 648 375 L 528.527344 375 C 513.617188 375 501.527344 362.910156 501.527344 348 L 501.527344 308.757812 C 501.527344 293.847656 513.617188 281.757812 528.527344 281.757812 Z M 528.527344 281.757812 " clip-rule="nonzero"/></clipPath><clipPath id="2323cdac1f"><path d="M 0.527344 0.757812 L 174 0.757812 L 174 94 L 0.527344 94 Z M 0.527344 0.757812 " clip-rule="nonzero"/></clipPath><clipPath id="ae530a4188"><path d="M 27.527344 0.757812 L 147 0.757812 C 161.910156 0.757812 174 12.847656 174 27.757812 L 174 67 C 174 81.910156 161.910156 94 147 94 L 27.527344 94 C 12.617188 94 0.527344 81.910156 0.527344 67 L 0.527344 27.757812 C 0.527344 12.847656 12.617188 0.757812 27.527344 0.757812 Z M 27.527344 0.757812 " clip-rule="nonzero"/></clipPath><clipPath id="8705cdbc7e"><rect x="0" width="174" y="0" height="94"/></clipPath><clipPath id="d0eb100424"><path d="M 75 281.757812 L 252.441406 281.757812 L 252.441406 373.710938 L 75 373.710938 Z M 75 281.757812 " clip-rule="nonzero"/></clipPath><clipPath id="ec5d369088"><path d="M 102 281.757812 L 225.125 281.757812 C 240.035156 281.757812 252.125 293.847656 252.125 308.757812 L 252.125 346.710938 C 252.125 361.621094 240.035156 373.710938 225.125 373.710938 L 102 373.710938 C 87.089844 373.710938 75 361.621094 75 346.710938 L 75 308.757812 C 75 293.847656 87.089844 281.757812 102 281.757812 Z M 102 281.757812 " clip-rule="nonzero"/></clipPath><clipPath id="812aeb1874"><path d="M 0 0.757812 L 177.238281 0.757812 L 177.238281 92.710938 L 0 92.710938 Z M 0 0.757812 " clip-rule="nonzero"/></clipPath><clipPath id="3fb9c9784e"><path d="M 27 0.757812 L 150.125 0.757812 C 165.035156 0.757812 177.125 12.847656 177.125 27.757812 L 177.125 65.710938 C 177.125 80.621094 165.035156 92.710938 150.125 92.710938 L 27 92.710938 C 12.089844 92.710938 0 80.621094 0 65.710938 L 0 27.757812 C 0 12.847656 12.089844 0.757812 27 0.757812 Z M 27 0.757812 " clip-rule="nonzero"/></clipPath><clipPath id="dd57a1e755"><rect x="0" width="178" y="0" height="93"/></clipPath><clipPath id="131e3d8b9d"><path d="M 252.125 465.664062 L 344.074219 465.664062 L 344.074219 557.617188 L 252.125 557.617188 Z M 252.125 465.664062 " clip-rule="nonzero"/></clipPath><clipPath id="f6fdb6cea8"><path d="M 263.375 465.664062 L 332.824219 465.664062 C 339.039062 465.664062 344.074219 470.699219 344.074219 476.914062 L 344.074219 546.367188 C 344.074219 552.578125 339.039062 557.617188 332.824219 557.617188 L 263.375 557.617188 C 257.160156 557.617188 252.125 552.578125 252.125 546.367188 L 252.125 476.914062 C 252.125 470.699219 257.160156 465.664062 263.375 465.664062 Z M 263.375 465.664062 " clip-rule="nonzero"/></clipPath><clipPath id="75248d1a35"><path d="M 0.125 0.664062 L 92.074219 0.664062 L 92.074219 92.617188 L 0.125 92.617188 Z M 0.125 0.664062 " clip-rule="nonzero"/></clipPath><clipPath id="9cfb430f0b"><path d="M 11.375 0.664062 L 80.824219 0.664062 C 87.039062 0.664062 92.074219 5.699219 92.074219 11.914062 L 92.074219 81.367188 C 92.074219 87.578125 87.039062 92.617188 80.824219 92.617188 L 11.375 92.617188 C 5.160156 92.617188 0.125 87.578125 0.125 81.367188 L 0.125 11.914062 C 0.125 5.699219 5.160156 0.664062 11.375 0.664062 Z M 11.375 0.664062 " clip-rule="nonzero"/></clipPath><clipPath id="2446a624b9"><rect x="0" width="93" y="0" height="93"/></clipPath><clipPath id="4c1dfc903f"><path d="M 409.574219 465.664062 L 501.527344 465.664062 L 501.527344 557.617188 L 409.574219 557.617188 Z M 409.574219 465.664062 " clip-rule="nonzero"/></clipPath><clipPath id="06599a478f"><path d="M 420.824219 465.664062 L 490.277344 465.664062 C 496.492188 465.664062 501.527344 470.699219 501.527344 476.914062 L 501.527344 546.367188 C 501.527344 552.578125 496.492188 557.617188 490.277344 557.617188 L 420.824219 557.617188 C 414.613281 557.617188 409.574219 552.578125 409.574219 546.367188 L 409.574219 476.914062 C 409.574219 470.699219 414.613281 465.664062 420.824219 465.664062 Z M 420.824219 465.664062 " clip-rule="nonzero"/></clipPath><clipPath id="c0868ab4d1"><path d="M 0.574219 0.664062 L 92.527344 0.664062 L 92.527344 92.617188 L 0.574219 92.617188 Z M 0.574219 0.664062 " clip-rule="nonzero"/></clipPath><clipPath id="b6a84c105e"><path d="M 11.824219 0.664062 L 81.277344 0.664062 C 87.492188 0.664062 92.527344 5.699219 92.527344 11.914062 L 92.527344 81.367188 C 92.527344 87.578125 87.492188 92.617188 81.277344 92.617188 L 11.824219 92.617188 C 5.613281 92.617188 0.574219 87.578125 0.574219 81.367188 L 0.574219 11.914062 C 0.574219 5.699219 5.613281 0.664062 11.824219 0.664062 Z M 11.824219 0.664062 " clip-rule="nonzero"/></clipPath><clipPath id="32fed0959a"><rect x="0" width="93" y="0" height="93"/></clipPath><clipPath id="4eeb5fac58"><path d="M 501.527344 373.710938 L 593.480469 373.710938 L 593.480469 465.664062 L 501.527344 465.664062 Z M 501.527344 373.710938 " clip-rule="nonzero"/></clipPath><clipPath id="78157d477e"><path d="M 512.777344 373.710938 L 582.230469 373.710938 C 588.445312 373.710938 593.480469 378.75 593.480469 384.960938 L 593.480469 454.414062 C 593.480469 460.628906 588.445312 465.664062 582.230469 465.664062 L 512.777344 465.664062 C 506.566406 465.664062 501.527344 460.628906 501.527344 454.414062 L 501.527344 384.960938 C 501.527344 378.75 506.566406 373.710938 512.777344 373.710938 Z M 512.777344 373.710938 " clip-rule="nonzero"/></clipPath><clipPath id="1bf48f10a6"><path d="M 0.527344 0.710938 L 92.480469 0.710938 L 92.480469 92.664062 L 0.527344 92.664062 Z M 0.527344 0.710938 " clip-rule="nonzero"/></clipPath><clipPath id="0dcae64429"><path d="M 11.777344 0.710938 L 81.230469 0.710938 C 87.445312 0.710938 92.480469 5.75 92.480469 11.960938 L 92.480469 81.414062 C 92.480469 87.628906 87.445312 92.664062 81.230469 92.664062 L 11.777344 92.664062 C 5.566406 92.664062 0.527344 87.628906 0.527344 81.414062 L 0.527344 11.960938 C 0.527344 5.75 5.566406 0.710938 11.777344 0.710938 Z M 11.777344 0.710938 " clip-rule="nonzero"/></clipPath><clipPath id="0c048f2f3d"><rect x="0" width="93" y="0" height="93"/></clipPath></defs><g clip-path="url(#3c9a627e39)"><g clip-path="url(#c8c903c17f)"><g transform="matrix(1, 0, 0, 1, 176, 234)"><g clip-path="url(#10b75794b2)"><g clip-path="url(#9b335166f3)"><g clip-path="url(#d2d1ef495f)"><path fill="#000000" d="M 0.558594 0.628906 L 395.542969 0.628906 L 395.542969 315.632812 L 0.558594 315.632812 Z M 0.558594 0.628906 " fill-opacity="1" fill-rule="nonzero"/></g></g></g></g></g></g><g clip-path="url(#21c978b7bb)"><g clip-path="url(#14db017ce7)"><g transform="matrix(1, 0, 0, 1, 252, 280)"><g clip-path="url(#81a7e37a98)"><g clip-path="url(#805816c415)"><g clip-path="url(#7d6dd23bd4)"><path fill="#000000" d="M 0.125 0.605469 L 243.652344 0.605469 L 243.652344 92.558594 L 0.125 92.558594 Z M 0.125 0.605469 " fill-opacity="1" fill-rule="nonzero"/></g></g></g></g></g></g><g clip-path="url(#2fc6695bd8)"><g clip-path="url(#1883719154)"><g transform="matrix(1, 0, 0, 1, 501, 465)"><g clip-path="url(#950eea1186)"><g clip-path="url(#81c15db1ce)"><g clip-path="url(#3bbd37616d)"><path fill="#ffffff" d="M 0.527344 0.664062 L 174 0.664062 L 174 210.050781 L 0.527344 210.050781 Z M 0.527344 0.664062 " fill-opacity="1" fill-rule="nonzero"/></g></g></g></g></g></g><g clip-path="url(#4c99bf923e)"><g clip-path="url(#551049a614)"><g transform="matrix(1, 0, 0, 1, 75, 465)"><g clip-path="url(#69b29f2fee)"><g clip-path="url(#6cfad6b7f7)"><g clip-path="url(#6ca4547cc0)"><path fill="#ffffff" d="M 0 0.664062 L 177.125 0.664062 L 177.125 210.304688 L 0 210.304688 Z M 0 0.664062 " fill-opacity="1" fill-rule="nonzero"/></g></g></g></g></g></g><g clip-path="url(#31ca8cf247)"><g clip-path="url(#baa2292a88)"><g transform="matrix(1, 0, 0, 1, 160, 189)"><g clip-path="url(#d6462391dd)"><g clip-path="url(#f364000a18)"><g clip-path="url(#8438d25606)"><path fill="#000000" d="M 0.171875 0.804688 L 92.125 0.804688 L 92.125 92.757812 L 0.171875 92.757812 Z M 0.171875 0.804688 " fill-opacity="1" fill-rule="nonzero"/></g></g></g></g></g></g><g clip-path="url(#8d5f7d9f31)"><g clip-path="url(#c837d45660)"><g transform="matrix(1, 0, 0, 1, 501, 189)"><g clip-path="url(#ebeb2e9283)"><g clip-path="url(#a33c2d8ff8)"><g clip-path="url(#7383786184)"><path fill="#000000" d="M 0.527344 0.804688 L 92.480469 0.804688 L 92.480469 92.757812 L 0.527344 92.757812 Z M 0.527344 0.804688 " fill-opacity="1" fill-rule="nonzero"/></g></g></g></g></g></g><g clip-path="url(#acab6c6982)"><g clip-path="url(#66b17847b4)"><g transform="matrix(1, 0, 0, 1, 160, 373)"><g clip-path="url(#2e1eaec998)"><g clip-path="url(#018dfd2b82)"><g clip-path="url(#ea8efb7d3c)"><path fill="#000000" d="M 0.171875 0.710938 L 92.125 0.710938 L 92.125 92.664062 L 0.171875 92.664062 Z M 0.171875 0.710938 " fill-opacity="1" fill-rule="nonzero"/></g></g></g></g></g></g><g clip-path="url(#4fb7ac3c9a)"><g clip-path="url(#b84fd8c161)"><g transform="matrix(1, 0, 0, 1, 324, 189)"><g clip-path="url(#652f3f387a)"><g clip-path="url(#fed365beb8)"><g clip-path="url(#5e58fb82e9)"><path fill="#ffffff" d="M 0.859375 368.609375 L 0.859375 0.980469 L 99.304688 0.980469 L 99.304688 368.609375 Z M 0.859375 368.609375 " fill-opacity="1" fill-rule="nonzero"/></g></g></g></g></g></g><g clip-path="url(#bed33d7186)"><g clip-path="url(#5e1973dd16)"><g transform="matrix(1, 0, 0, 1, 409, 281)"><g clip-path="url(#2e0ae1f9e6)"><g clip-path="url(#39059018bb)"><g clip-path="url(#4921fa6997)"><path fill="#000000" d="M 0.574219 0.757812 L 92.527344 0.757812 L 92.527344 92.710938 L 0.574219 92.710938 Z M 0.574219 0.757812 " fill-opacity="1" fill-rule="nonzero"/></g></g></g></g></g></g><g clip-path="url(#b851c4ded8)"><g clip-path="url(#b55929d2e1)"><g transform="matrix(1, 0, 0, 1, 252, 281)"><g clip-path="url(#2d84402146)"><g clip-path="url(#dda4f828a2)"><g clip-path="url(#9d99c04426)"><path fill="#000000" d="M 0.125 0.757812 L 92.074219 0.757812 L 92.074219 92.710938 L 0.125 92.710938 Z M 0.125 0.757812 " fill-opacity="1" fill-rule="nonzero"/></g></g></g></g></g></g><g clip-path="url(#7956ddaaab)"><g clip-path="url(#f3b8a29c55)"><g transform="matrix(1, 0, 0, 1, 252, 373)"><g clip-path="url(#54f75d573f)"><g clip-path="url(#62616aa3c1)"><g clip-path="url(#0eada5ff2a)"><path fill="#ffffff" d="M 0.125 0.710938 L 249.402344 0.710938 L 249.402344 92.664062 L 0.125 92.664062 Z M 0.125 0.710938 " fill-opacity="1" fill-rule="nonzero"/></g></g></g></g></g></g><g clip-path="url(#fe89be2be4)"><g clip-path="url(#7a5ac1a749)"><g transform="matrix(1, 0, 0, 1, 252, 75)"><g clip-path="url(#5d211e40b6)"><g clip-path="url(#405455cdb9)"><g clip-path="url(#d96c7f448b)"><path fill="#ffffff" d="M 0.125 0 L 249.6875 0 L 249.6875 206.757812 L 0.125 206.757812 Z M 0.125 0 " fill-opacity="1" fill-rule="nonzero"/></g></g></g></g></g></g><g clip-path="url(#3e904ad4dc)"><g clip-path="url(#4df9429d8a)"><g transform="matrix(1, 0, 0, 1, 501, 281)"><g clip-path="url(#8705cdbc7e)"><g clip-path="url(#2323cdac1f)"><g clip-path="url(#ae530a4188)"><path fill="#ffffff" d="M 0.527344 0.757812 L 173.898438 0.757812 L 173.898438 94 L 0.527344 94 Z M 0.527344 0.757812 " fill-opacity="1" fill-rule="nonzero"/></g></g></g></g></g></g><g clip-path="url(#d0eb100424)"><g clip-path="url(#ec5d369088)"><g transform="matrix(1, 0, 0, 1, 75, 281)"><g clip-path="url(#dd57a1e755)"><g clip-path="url(#812aeb1874)"><g clip-path="url(#3fb9c9784e)"><path fill="#ffffff" d="M 0 0.757812 L 177.082031 0.757812 L 177.082031 92.710938 L 0 92.710938 Z M 0 0.757812 " fill-opacity="1" fill-rule="nonzero"/></g></g></g></g></g></g><g clip-path="url(#131e3d8b9d)"><g clip-path="url(#f6fdb6cea8)"><g transform="matrix(1, 0, 0, 1, 252, 465)"><g clip-path="url(#2446a624b9)"><g clip-path="url(#75248d1a35)"><g clip-path="url(#9cfb430f0b)"><path fill="#000000" d="M 0.125 0.664062 L 92.074219 0.664062 L 92.074219 92.617188 L 0.125 92.617188 Z M 0.125 0.664062 " fill-opacity="1" fill-rule="nonzero"/></g></g></g></g></g></g><g clip-path="url(#4c1dfc903f)"><g clip-path="url(#06599a478f)"><g transform="matrix(1, 0, 0, 1, 409, 465)"><g clip-path="url(#32fed0959a)"><g clip-path="url(#c0868ab4d1)"><g clip-path="url(#b6a84c105e)"><path fill="#000000" d="M 0.574219 0.664062 L 92.527344 0.664062 L 92.527344 92.617188 L 0.574219 92.617188 Z M 0.574219 0.664062 " fill-opacity="1" fill-rule="nonzero"/></g></g></g></g></g></g><g clip-path="url(#4eeb5fac58)"><g clip-path="url(#78157d477e)"><g transform="matrix(1, 0, 0, 1, 501, 373)"><g clip-path="url(#0c048f2f3d)"><g clip-path="url(#1bf48f10a6)"><g clip-path="url(#0dcae64429)"><path fill="#000000" d="M 0.527344 0.710938 L 92.480469 0.710938 L 92.480469 92.664062 L 0.527344 92.664062 Z M 0.527344 0.710938 " fill-opacity="1" fill-rule="nonzero"/></g></g></g></g></g></g></svg>